<?xml version="1.0" encoding="utf-8"?>
<!-- Generator: Adobe Illustrator 16.2.1, SVG Export Plug-In . SVG Version: 6.00 Build 0)  -->
<!DOCTYPE svg PUBLIC "-//W3C//DTD SVG 1.1//EN" "http://www.w3.org/Graphics/SVG/1.1/DTD/svg11.dtd">
<svg version="1.1" id="Layer_1" xmlns="http://www.w3.org/2000/svg" xmlns:xlink="http://www.w3.org/1999/xlink" x="0px" y="0px"
	 width="100px" height="92.325px" viewBox="0 0 100 92.325" enable-background="new 0 0 100 92.325" xml:space="preserve">
<g>
	<path fill="#CACAC2" d="M10.607,18.654l39.255,25.999L50,44.745l0.138-0.091l39.254-25.999v22.764v0.25h0.25h6.437
		c2.522,0,3.671,1.972,3.671,3.805s-1.148,3.804-3.67,3.804h-6.438h-0.25v0.25v21.026L50,92.04L10.607,70.553V49.527v-0.25h-0.25
		H3.921c-2.523,0-3.672-1.972-3.672-3.805c0-1.832,1.149-3.804,3.672-3.804h6.436h0.25v-0.25V18.654 M89.643,18.189L50,44.445
		L10.357,18.189v23.229c-2.145,0-4.291,0-6.436,0c-5.229,0-5.229,8.109,0,8.109c2.146,0,4.291,0,6.436,0v21.175L50,92.325
		l39.643-21.623V49.527c2.146,0,4.291,0,6.438,0c5.227,0,5.227-8.109-0.001-8.109c-2.146,0-4.291,0-6.437,0V18.189L89.643,18.189z"
		/>
</g>
<g>
	<path fill="#CACAC2" d="M50,0.249c8.095,0,14.68,6.585,14.68,14.68c0,8.094-6.585,14.68-14.68,14.68s-14.68-6.585-14.68-14.68
		C35.32,6.834,41.905,0.249,50,0.249 M50-0.001c-8.246,0-14.93,6.685-14.93,14.93s6.685,14.93,14.93,14.93
		c8.246,0,14.93-6.684,14.93-14.93S58.246-0.001,50-0.001L50-0.001z"/>
</g>
</svg>
